<?xml version="1.0" encoding="UTF-8"?>
<svg xmlns="http://www.w3.org/2000/svg" xmlns:xlink="http://www.w3.org/1999/xlink" width="61pt" height="58pt" viewBox="0 0 61 58" version="1.1">
<g id="surface1">
<path style="fill:none;stroke-width:0.3985;stroke-linecap:butt;stroke-linejoin:miter;stroke:rgb(0%,0%,0%);stroke-opacity:1;stroke-miterlimit:10;" d="M -26.958521 8.759672 L -16.662676 -22.934056 L 16.662117 -22.934056 L 26.957962 8.759672 L -0.000279372 28.348536 L -26.958521 8.759672 " transform="matrix(1.0001,0,0,-1.00005,30.547154,31.939797)"/>
<path style=" stroke:none;fill-rule:nonzero;fill:rgb(0%,0%,0%);fill-opacity:1;" d="M 5.578125 23.179688 C 5.578125 22.078125 4.683594 21.1875 3.585938 21.1875 C 2.484375 21.1875 1.59375 22.078125 1.59375 23.179688 C 1.59375 24.28125 2.484375 25.171875 3.585938 25.171875 C 4.683594 25.171875 5.578125 24.28125 5.578125 23.179688 Z M 5.578125 23.179688 "/>
<path style=" stroke:none;fill-rule:nonzero;fill:rgb(0%,0%,0%);fill-opacity:1;" d="M 15.875 54.875 C 15.875 53.773438 14.984375 52.882812 13.882812 52.882812 C 12.78125 52.882812 11.890625 53.773438 11.890625 54.875 C 11.890625 55.976562 12.78125 56.867188 13.882812 56.867188 C 14.984375 56.867188 15.875 55.976562 15.875 54.875 Z M 15.875 54.875 "/>
<path style=" stroke:none;fill-rule:nonzero;fill:rgb(0%,0%,0%);fill-opacity:1;" d="M 49.203125 54.875 C 49.203125 53.773438 48.3125 52.882812 47.210938 52.882812 C 46.109375 52.882812 45.21875 53.773438 45.21875 54.875 C 45.21875 55.976562 46.109375 56.867188 47.210938 56.867188 C 48.3125 56.867188 49.203125 55.976562 49.203125 54.875 Z M 49.203125 54.875 "/>
<path style=" stroke:none;fill-rule:nonzero;fill:rgb(0%,0%,0%);fill-opacity:1;" d="M 59.503906 23.179688 C 59.503906 22.078125 58.609375 21.1875 57.507812 21.1875 C 56.410156 21.1875 55.515625 22.078125 55.515625 23.179688 C 55.515625 24.28125 56.410156 25.171875 57.507812 25.171875 C 58.609375 25.171875 59.503906 24.28125 59.503906 23.179688 Z M 59.503906 23.179688 "/>
<path style=" stroke:none;fill-rule:nonzero;fill:rgb(0%,0%,0%);fill-opacity:1;" d="M 32.539062 3.589844 C 32.539062 2.492188 31.648438 1.597656 30.546875 1.597656 C 29.445312 1.597656 28.554688 2.492188 28.554688 3.589844 C 28.554688 4.691406 29.445312 5.585938 30.546875 5.585938 C 31.648438 5.585938 32.539062 4.691406 32.539062 3.589844 Z M 32.539062 3.589844 "/>
</g>
</svg>
